<?xml version="1.0" encoding="UTF-8" standalone="no"?>
<svg
   width="350"
   height="70.999001"
   viewBox="0 0 92.604167 18.785152"
   version="1.1"
   id="svg5"
   xml:space="preserve"
   sodipodi:docname="logo.svg"
   inkscape:version="1.2.1 (9c6d41e410, 2022-07-14)"
   xmlns:inkscape="http://www.inkscape.org/namespaces/inkscape"
   xmlns:sodipodi="http://sodipodi.sourceforge.net/DTD/sodipodi-0.dtd"
   xmlns="http://www.w3.org/2000/svg"
   xmlns:svg="http://www.w3.org/2000/svg"><sodipodi:namedview
     id="namedview191"
     pagecolor="#505050"
     bordercolor="#eeeeee"
     borderopacity="1"
     inkscape:showpageshadow="0"
     inkscape:pageopacity="0"
     inkscape:pagecheckerboard="0"
     inkscape:deskcolor="#505050"
     showgrid="false"
     inkscape:zoom="2.238498"
     inkscape:cx="186.28562"
     inkscape:cy="70.136313"
     inkscape:window-width="1920"
     inkscape:window-height="1009"
     inkscape:window-x="1912"
     inkscape:window-y="-8"
     inkscape:window-maximized="1"
     inkscape:current-layer="svg5" /><defs
     id="defs2" /><path
     d="m 36.274711,12.125999 -2.478298,1.749388 q 0.558831,1.190555 1.555011,2.211032 0.996179,1.020476 2.332517,1.627902 1.360635,0.58313 2.915647,0.58313 1.166257,0 2.21103,-0.364455 1.069071,-0.340161 1.919467,-0.99618 0.850398,-0.680318 1.336338,-1.6522 0.485942,-0.971883 0.485942,-2.211032 0,-1.093366 -0.364457,-1.919467 Q 45.84775,10.303721 45.216027,9.6962932 44.6086,9.0645713 43.831094,8.6272235 43.077885,8.1898772 42.251786,7.8983122 40.964043,7.4609657 40.113645,7.0479154 39.263249,6.6105689 38.850199,6.1489251 q -0.41305,-0.4859409 -0.41305,-1.1176646 0,-0.6317234 0.510238,-1.0933672 0.510238,-0.4859409 1.530715,-0.4859409 0.777505,0 1.384931,0.3158612 0.607426,0.2915649 1.069069,0.8018031 0.485942,0.4859412 0.826102,1.0933675 L 46.479472,4.1565665 Q 46.042126,3.2575753 45.240323,2.4314758 44.462817,1.581079 43.272262,1.0465445 42.106004,0.48771184 40.478102,0.48771184 q -1.579309,0 -2.867052,0.58312896 -1.263447,0.5588327 -2.016656,1.6279028 -0.728911,1.0447727 -0.728911,2.5025958 0,1.2148525 0.461644,2.0895465 0.461643,0.8503968 1.166258,1.4578229 0.704614,0.5831294 1.48212,0.9718817 0.801803,0.3644565 1.409229,0.5831305 1.141962,0.437347 1.919468,0.8261 0.801802,0.364455 1.190555,0.850397 0.413049,0.485941 0.413049,1.287743 0,0.923288 -0.65602,1.457823 -0.656021,0.534536 -1.700793,0.534536 -0.898992,0 -1.676497,-0.388753 -0.777506,-0.388754 -1.433525,-1.093368 -0.631724,-0.704615 -1.16626,-1.6522 z"
     id="path412"
     style="font-weight:600;font-size:25.6278px;line-height:1.25;font-family:Jost;-inkscape-font-specification:'Jost Semi-Bold';stroke-width:0.607428;fill:#208aae;fill-opacity:1" /><path
     d="M 0.31289316,0.88860778 V 17.896544 H 3.884559 V 0.88860778 Z m 9.62163144,0 L 2.8640835,8.9552291 10.201792,17.896544 H 14.42948 L 7.018879,8.858041 14.065025,0.88860778 Z"
     style="font-weight:600;font-size:25.6278px;line-height:1.25;font-family:Jost;-inkscape-font-specification:'Jost Semi-Bold';stroke-width:0.607428;fill:#208aae;fill-opacity:1"
     id="path409" /><path
     d="M 16.057734,3.7625822 27.121178,0.79814063 a 1.6362457,1.6362457 0 0 1 2.003979,1.15700197 l 2.96444,11.0634424 A 1.6362457,1.6362457 0 0 1 30.9326,15.022569 L 19.869156,17.987011 A 1.6362457,1.6362457 0 0 1 17.865171,16.830008 L 14.900731,5.766566 A 1.6362457,1.6362457 0 0 1 16.057734,3.7625822 M 23.07167,7.812084 A 1.6362457,1.6362457 0 0 0 21.914671,9.8160687 1.6362457,1.6362457 0 0 0 23.918654,10.97307 1.6362457,1.6362457 0 0 0 25.075658,8.9690831 1.6362457,1.6362457 0 0 0 23.07167,7.812084 Z"
     id="path182"
     style="stroke-width:0.818123;fill:#208aae;fill-opacity:1" /><path
     d="m 47.694321,3.9621905 h 4.567846 V 17.835807 h 3.474478 V 3.9621905 h 4.592143 V 0.82787029 H 47.694321 Z"
     id="path414"
     style="font-weight:600;font-size:25.6278px;line-height:1.25;font-family:Jost;-inkscape-font-specification:'Jost Semi-Bold';stroke-width:0.607428;fill:#208aae;fill-opacity:1" /><path
     d="M 62.296853,0.82787029 V 17.835807 h 3.571668 V 0.82787029 Z m 9.621632,0 -7.070441,8.06662211 7.337713,8.9413146 h 4.22768 L 69.002835,8.7973043 76.048988,0.82787029 Z"
     id="path416"
     style="font-weight:600;font-size:25.6278px;line-height:1.25;font-family:Jost;-inkscape-font-specification:'Jost Semi-Bold';stroke-width:0.607428;fill:#208aae;fill-opacity:1" /><path
     d="M 88.464813,0.82787029 84.795957,7.679639 81.151399,0.82787029 H 77.190981 L 83.04657,10.813959 v 7.021848 h 3.523072 v -7.046146 l 5.85559,-9.96179071 z"
     id="path418"
     style="font-weight:600;font-size:25.6278px;line-height:1.25;font-family:Jost;-inkscape-font-specification:'Jost Semi-Bold';stroke-width:0.607428;fill:#208aae;fill-opacity:1" /><g
     id="layer1"
     transform="translate(-31.582431,-54.858878)"
     style="fill:#208aae;fill-opacity:1" /></svg>
